<?xml version="1.0" encoding="iso-8859-1"?>
<!-- Generator: Adobe Illustrator 16.0.0, SVG Export Plug-In . SVG Version: 6.00 Build 0)  -->
<!DOCTYPE svg PUBLIC "-//W3C//DTD SVG 1.1//EN" "http://www.w3.org/Graphics/SVG/1.1/DTD/svg11.dtd">
<svg version="1.1" xmlns="http://www.w3.org/2000/svg" xmlns:xlink="http://www.w3.org/1999/xlink" x="0px" y="0px" width="512px"
	 height="512px" viewBox="0 0 512 512" style="enable-background:new 0 0 512 512;" xml:space="preserve">
<g id="C_-_81_x2C__Clock_x2C__hours_x2C__man_x2C__personal_x2C__schedule_x2C__time_x2C__timing_x2C__user">
	<g>
		<path d="M389.903,300.455c-7.184-3.822-15.325-8.154-24-12.825c-1.717-0.925-3.828-0.689-5.299,0.592l-68.746,59.874
			l-68.627-59.865c-1.472-1.283-3.582-1.521-5.3-0.596c-11.794,6.345-22.372,11.903-31.703,16.807
			c-29.348,15.422-47.79,25.116-59.511,35.86c-4.275-1.71-8.427-3.634-12.443-5.763l15.545-26.803
			c1.297-2.238,0.536-5.105-1.703-6.404c-2.238-1.298-5.105-0.535-6.403,1.702l-15.557,26.824
			c-16.708-10.474-30.688-24.566-41.032-40.975l26.829-15.415c2.244-1.288,3.019-4.152,1.729-6.396
			c-1.289-2.243-4.152-3.017-6.397-1.728L60.41,280.784c-9.076-16.979-14.429-36.02-15.16-55.848h31.135
			c2.587,0,4.686-2.097,4.686-4.685c0-2.589-2.098-4.686-4.686-4.686H45.251c0.725-20.135,6.093-39.109,15.072-55.896l26.96,15.495
			c0.737,0.423,1.539,0.624,2.331,0.624c1.623,0,3.2-0.844,4.067-2.353c1.29-2.242,0.516-5.106-1.728-6.396l-26.913-15.469
			c10.44-16.515,24.524-30.527,41.124-40.912l15.549,26.81c0.87,1.498,2.442,2.335,4.058,2.335c0.797,0,1.606-0.204,2.346-0.633
			c2.239-1.299,3-4.166,1.703-6.404l-15.538-26.79c16.875-8.937,35.948-14.277,56.188-14.995v30.97c0,2.589,2.098,4.686,4.686,4.686
			c2.587,0,4.686-2.097,4.686-4.686V90.978c10.032,0.356,19.938,1.858,29.574,4.474c-6.083,11.753-9.505,24.961-9.505,38.915
			c0,44.089,32.057,126.331,93.341,126.331c61.292,0,93.354-82.242,93.354-126.331c0-48.843-41.878-88.579-93.354-88.579
			c-33.174,0-62.358,16.512-78.916,41.326c-12.698-3.7-25.856-5.596-39.18-5.596c-76.848,0-139.368,62.235-139.368,138.734
			c0,28.792,8.781,56.406,25.393,79.855c14.933,21.078,35.144,37.392,58.725,47.521c-1.08,1.391-2.079,2.816-2.998,4.294
			c-10.271,16.503-10.035,37.542-9.564,79.459c0.1,8.91,0.213,19.011,0.235,30.155c0.005,2.584,2.102,4.676,4.686,4.676h359.168
			c1.247,0,2.442-0.496,3.321-1.381c0.88-0.883,1.371-2.081,1.364-3.327c-0.056-11.238-0.001-21.403,0.047-30.37
			C476.612,347.39,475.807,346.168,389.903,300.455z M377.233,134.366c0,22.993-8.744,52.354-22.277,74.801
			c-11.595,19.232-31.713,42.159-61.706,42.159c-0.001,0-0.001,0-0.002,0c29.991,0,50.108-22.928,61.703-42.159
			c13.534-22.447,22.278-51.808,22.278-74.801c0-43.675-37.675-79.207-83.981-79.208c0.001,0,0.001,0,0.002,0
			C339.559,55.158,377.233,90.69,377.233,134.366z M128.968,351.377c-0.374,0.428-0.737,0.856-1.089,1.289
			C128.231,352.233,128.594,351.805,128.968,351.377z M130.713,349.488c-0.413,0.425-0.813,0.852-1.203,1.281
			C129.9,350.34,130.3,349.913,130.713,349.488z M125.071,356.553c0.285-0.448,0.581-0.892,0.887-1.332
			C125.652,355.661,125.356,356.104,125.071,356.553z M126.415,354.575c0.316-0.438,0.643-0.872,0.981-1.303
			C127.058,353.703,126.73,354.138,126.415,354.575z M132.227,347.984c0.007-0.006,0.014-0.013,0.021-0.02
			C132.241,347.972,132.233,347.979,132.227,347.984z M133.481,346.824c0.056-0.051,0.111-0.1,0.167-0.149
			C133.592,346.725,133.537,346.773,133.481,346.824z M134.869,345.608c0.042-0.036,0.084-0.072,0.126-0.108
			C134.953,345.536,134.912,345.571,134.869,345.608z M139.527,341.924c0.046-0.033,0.092-0.067,0.137-0.101
			C139.619,341.856,139.573,341.891,139.527,341.924z M141.193,340.72c0.049-0.036,0.099-0.071,0.149-0.106
			C141.292,340.648,141.243,340.684,141.193,340.72z M148.855,335.659c0.021-0.014,0.043-0.027,0.064-0.04
			C148.898,335.632,148.877,335.646,148.855,335.659z M282.812,434.731v-17.886h18.07v17.886H282.812z M300.882,398.998h-18.07
			V381.11h18.07V398.998z M288.775,357.842c0.881,0.769,1.978,1.152,3.075,1.153c-1.099,0-2.197-0.384-3.079-1.153l-69.261-60.418
			c0.001-0.001,0.002-0.001,0.003-0.002L288.775,357.842z M466.793,431.084c-0.041,7.723-0.087,16.331-0.063,25.759h-0.005
			c-0.022-9.428,0.022-18.036,0.064-25.759c0.213-39.851,0.32-59.854-9.366-74.479c-9.815-14.824-30.572-25.87-71.927-47.876
			c-6.398-3.406-13.558-7.215-21.182-11.311l0.002-0.002c7.625,4.097,14.785,7.906,21.185,11.313
			c41.354,22.006,62.111,33.052,71.927,47.876C467.113,371.23,467.007,391.233,466.793,431.084z"/>
		<path d="M179.84,157.695c0-2.588-2.099-4.685-4.686-4.685c-2.588,0-4.686,2.097-4.686,4.685v60.354l-52.181,43.278
			c-1.991,1.651-2.267,4.605-0.615,6.598c0.926,1.117,2.262,1.694,3.609,1.694c1.053,0,2.114-0.354,2.988-1.079l53.875-44.683
			c0.054-0.045,0.093-0.101,0.145-0.146c0.124-0.112,0.238-0.23,0.349-0.354c0.099-0.109,0.192-0.221,0.279-0.338
			c0.091-0.123,0.172-0.252,0.251-0.385c0.077-0.13,0.151-0.26,0.215-0.396c0.064-0.138,0.118-0.278,0.169-0.422
			c0.051-0.144,0.098-0.287,0.135-0.435c0.036-0.143,0.061-0.287,0.083-0.435c0.024-0.163,0.042-0.325,0.049-0.489
			c0.003-0.07,0.021-0.136,0.021-0.207V157.695z"/>
	</g>
</g>
<g id="Layer_1">
</g>
</svg>
